PathFileType	4	(X/Y/Z)	Patient4_TMGait_0pt5_01_left_30.trc.trc
DataRate	CameraRate	NumFrames	NumMarkers	Units	OrigDataRate	OrigDataStartFrame	OrigNumFrames
74.866310160428	74.866310160428	4	33	mm	74.866310160428	89	       141
Frame#	Time	L.ASIS			Sacral			L.Shoulder			Chest			R.Shoulder			Neck			R.ASIS			R.Thigh.Superior			R.Thigh.Lateral			R.Thigh.Inferior			R.Patella			L.Thigh.Superior			L.Thigh.Lateral			L.Thigh.Inferior			L.Patella			L.Shank.Superior			L.Shank.Lateral			L.Shank.Inferior			R.Shank.Superior			R.Shank.Lateral			R.Shank.Inferior			R.Heel			R.Midfoot.Superior			R.Midfoot.Lateral			R.Toe			L.Heel			L.Midfoot.Lateral			L.Midfoot.Superior			L.Toe			L.Elbow			L.Wrist			R.Elbow			R.Wrist			
		X1	Y1	Z1	X2	Y2	Z2	X3	Y3	Z3	X4	Y4	Z4	X5	Y5	Z5	X6	Y6	Z6	X7	Y7	Z7	X8	Y8	Z8	X9	Y9	Z9	X10	Y10	Z10	X11	Y11	Z11	X12	Y12	Z12	X13	Y13	Z13	X14	Y14	Z14	X15	Y15	Z15	X16	Y16	Z16	X17	Y17	Z17	X18	Y18	Z18	X19	Y19	Z19	X20	Y20	Z20	X21	Y21	Z21	X22	Y22	Z22	X23	Y23	Z23	X24	Y24	Z24	X25	Y25	Z25	X26	Y26	Z26	X27	Y27	Z27	X28	Y28	Z28	X29	Y29	Z29	X30	Y30	Z30	X31	Y31	Z31	X32	Y32	Z32	X33	Y33	Z33	

89	41.215428571429	881.540943021874	959.052604650705	348.349294811748	666.009866616961	999.463326051493	502.777244310287	840.454297618763	1429.580654319654	324.329149826398	938.012611096112	1361.952774460066	489.686180819279	845.159301691808	1434.989479374633	660.313857634812	835.248855892717	1491.634241473114	474.997015970079	892.320357744558	935.673430578516	622.271518308228	957.499572625321	750.285926699676	586.232036151248	893.188295353907	632.575573226184	648.586299597102	975.868956782966	589.691975425448	567.268891614681	989.160376205633	499.163757346983	574.661923202100	902.212267754139	733.623691325589	367.491764009035	797.460475483283	629.805985478935	306.509134393855	872.838246671359	537.870497487402	362.429884868389	860.729181882575	457.088865862709	362.981279491256	801.427377868320	397.961713620290	358.391611450189	669.910177264612	332.927090142910	309.410603641110	674.383260371880	206.192076969512	371.945833390330	963.957528607558	408.442223642154	584.011599986944	897.623983524098	302.074796732023	646.259466776433	944.721274157096	208.858809511951	586.132397119118	816.463835664852	42.562450599429	555.364972292383	985.879733067734	99.130672248520	596.351404424380	897.725083844689	36.555001373894	632.793324931961	1105.250748783195	49.180562491741	627.493649799729	496.966759638740	101.089856841551	409.267187599356	566.846521503025	69.488359379559	333.376216742506	663.723159421103	107.237776442559	356.294116530766	769.181647771020	34.721217594309	338.021492396717	844.281600284991	1076.140854155167	201.364872870115	1006.395038348736	871.418183278348	186.643637919682	759.292008732891	1097.672947481079	773.947404588779	839.619055086434	849.048039977649	784.533816350139	
90	41.228785714286	880.177947301493	959.433073911699	350.671261062178	666.067016859857	999.885441469600	506.960051102766	838.408821318621	1430.701779783421	327.774020592620	937.649516948948	1362.612515125302	491.942244345490	846.491380270330	1435.048702100612	663.614089533692	834.653785429157	1492.283826085194	478.729208425519	893.283504894787	936.460972850303	624.451817871020	956.593871853157	749.313978659900	589.162162680464	890.845987964037	632.547713985710	650.955161930056	972.792293657977	588.969152325708	569.273669252914	985.114177775734	498.444606925371	576.243705442938	906.637807308778	735.652387040843	369.904791378327	805.889995942940	629.164280989225	308.384318792278	884.412981137396	538.708011971979	363.774367710993	873.333230750597	456.432474968856	363.270195212164	811.412189416028	397.713210018150	359.049463806189	677.478755763397	337.926495870486	310.040443481789	677.367420605104	210.947653784028	371.828176299059	959.346100533102	407.915736789433	585.475179716040	892.512733798593	301.722296792122	647.387611077406	938.914445543533	208.488729391286	586.796202941167	809.908636321319	42.521078067730	555.512318089590	979.355183658309	99.076556006984	596.586505352569	891.158740117098	36.557430426499	633.066628531699	1098.710911904015	49.030068904745	627.668281307100	495.886396253894	114.680593865711	408.666593041679	563.892833385857	78.877561282221	333.019759324351	662.584280240160	111.331218470340	355.724315388980	762.911011399829	33.884763302848	338.112558003462	838.292805792904	1076.733494592039	206.156912371842	989.706339389368	863.921324907352	190.268996067166	769.154463900928	1095.469153606025	778.333020980482	860.283705660380	850.701339748040	788.395943130308	
91	41.242142857143	878.666462593191	959.651707480012	352.945217867064	665.936605626160	1000.270571235202	511.007692407596	836.213051673424	1431.679887086941	331.078842412287	937.196446837816	1363.146785892126	494.019379861430	847.824779805008	1435.023972042693	666.773291371624	833.995221501965	1492.832861262457	482.304288871477	893.993895316325	937.175752448506	626.575294881359	955.406667869591	748.293925616923	592.291294082485	888.130595402350	632.478382174681	653.393510085783	969.476907426746	588.226459243725	571.487969490792	980.784850554169	497.746712232849	578.045280997477	911.092299934168	737.926949181768	372.379366508006	814.761370887034	628.808475581490	310.071502228976	896.315422048898	540.050430026516	365.151220867639	886.343513317147	456.344775218307	363.710713072920	822.047627120798	397.912476175238	359.703546919978	685.942547020161	343.387417428514	310.577595651858	681.205993804169	216.377185198128	371.744674240432	954.510437234074	407.404290984240	587.086060966705	887.198998727273	301.339992471792	648.598052500314	933.007132965558	208.126110092984	587.546772258046	803.312590364301	42.510511256085	555.655881280858	972.816739944484	98.973332871011	596.839714355327	884.550577004248	36.533707021525	633.322694032776	1092.152403725512	48.741887079471	627.843511765635	495.934982892791	129.292186858987	408.106673330371	561.895602649470	89.378886915182	332.660488874013	662.253367424492	116.256336765000	355.251819163006	757.179091826656	33.118117746479	338.138813157001	831.971375370211	1077.247362828453	210.800702322661	972.339653199335	856.958011595969	193.987344708951	779.631661947097	1093.387806244742	782.653557768376	881.513395588907	852.983327632773	791.991588187184	
92	41.255500000000	877.020103555445	959.726681006910	355.165952455768	665.600995843679	1000.624776331037	514.881322705350	833.909347501032	1432.502743812696	334.219678370301	936.656477350171	1363.551983515738	495.918044485394	849.126290459051	1434.928895863571	669.772259849703	833.296441202705	1493.285166909203	485.686216167598	894.450580556617	937.821491773123	628.643461062620	953.980718880080	747.286404798428	595.500150902931	885.158949150690	632.391796145749	655.839412729638	966.012584338066	587.491120672189	573.824216465862	976.263334210777	497.079335074073	579.984256408861	915.430653485888	740.462682154098	374.910379990060	823.837674093265	628.833115706519	311.574323148813	908.254333963327	541.963891313926	366.554035529621	899.506275288421	456.909036467919	364.279771661460	833.115016010046	398.621346270421	360.344636258384	695.092029696696	349.209320142765	311.069993686479	685.861533582135	222.336439279770	371.728089593996	949.535876127794	406.914667304739	588.779985581702	881.764318433706	300.952950221129	649.862604854920	927.042973679328	207.775543075212	588.352704207561	796.679647421819	42.531228394406	555.803334225145	966.268862096772	98.828776720124	597.107075727882	877.905698296787	36.491645180388	633.563411395207	1085.578842723448	48.337018108244	628.019486138719	497.202351415741	144.381540431224	407.672309494612	561.029536054776	100.629593128703	332.350367325092	662.848454711513	121.905573975430	354.901696325651	752.330249138896	32.536553386302	338.062121118561	825.273086651409	1077.670046753100	215.281428624648	954.412444047888	850.612499390772	197.798222657344	790.674986139106	1091.478389745262	786.836993797733	903.183510226327	855.926315611993	795.272082484597	
